<svg width="24" height="24" viewBox="0 0 24 24" fill="none" xmlns="http://www.w3.org/2000/svg">
<path d="M5.63593 5.63604C6.02646 5.24551 6.65962 5.24551 7.05015 5.63604L11.9999 10.5858L16.9496 5.63604C17.3402 5.24552 17.9733 5.24551 18.3639 5.63604C18.7544 6.02656 18.7544 6.65973 18.3639 7.05025L13.4141 12L18.3639 16.9497C18.7544 17.3403 18.7544 17.9734 18.3639 18.364C17.9733 18.7545 17.3402 18.7545 16.9496 18.364L11.9999 13.4142L7.05015 18.364C6.65962 18.7545 6.02646 18.7545 5.63593 18.364C5.24541 17.9734 5.24541 17.3403 5.63593 16.9497L10.5857 12L5.63593 7.05025C5.24541 6.65973 5.24541 6.02656 5.63593 5.63604Z" fill="#ED4C14"/>
</svg>
