<?xml version="1.0" encoding="UTF-8"?>
<svg id="Layer_1" data-name="Layer 1" xmlns="http://www.w3.org/2000/svg" xmlns:xlink="http://www.w3.org/1999/xlink" viewBox="0 0 200 200">
  <defs>
    <style>
      .cls-1 {
        stroke-width: 5.5px;
      }

      .cls-1, .cls-2 {
        fill: none;
        stroke: #fff;
        stroke-linejoin: round;
      }

      .cls-2 {
        stroke-linecap: round;
        stroke-width: 5.5px;
      }

      .cls-3 {
        fill: url(#linear-gradient);
      }
    </style>
    <linearGradient id="linear-gradient" x1="12.07" y1="187.93" x2="191.98" y2="8.02" gradientUnits="userSpaceOnUse">
      <stop offset="0" stop-color="#2777e9"/>
      <stop offset="1" stop-color="#182b53"/>
    </linearGradient>
  </defs>
  <path class="cls-3" d="M137.5,200H62.5c-50,0-62.5-12.5-62.5-62.5V62.5C0,12.5,12.5,0,62.5,0h75c50,0,62.5,12.5,62.5,62.5v75c0,50-12.5,62.5-62.5,62.5Z"/>
  <g>
    <path class="cls-1" d="M40,132.05V62c0-5.52,4.47-10,10-10h100c5.52,0,10,4.48,10,10v82.96"/>
    <rect class="cls-1" x="151" y="134.43" width="18" height="28" rx="9" ry="9"/>
    <path class="cls-1" d="M106.92,128.4c-1.64,1.99-4.13,3.26-6.92,3.26s-5.28-1.27-6.92-3.26"/>
    <line class="cls-1" x1="151" y1="144.96" x2="169" y2="144.96"/>
    <path class="cls-1" d="M99.75,131.65v.4c0,5.52-4.47,10-10,10h-39.75c-5.53,0-10-4.48-10-10v-60.1"/>
    <polyline class="cls-2" points="55 71.34 55 128.4 93.08 128.4"/>
    <polyline class="cls-2" points="145 71.34 145 128.4 106.92 128.4"/>
    <path class="cls-1" d="M99.95,119.99s-17.72-3.18-36-3.18v-54.86s22.23-.13,36,7.49v50.55Z"/>
    <path class="cls-1" d="M99.95,119.99s17.72-3.18,36-3.18c0-3.03,0-54.86,0-54.86,0,0-22.23-.13-36,7.49,0,12.66,0,50.55,0,50.55Z"/>
  </g>
</svg>