<?xml version="1.0" encoding="UTF-8"?>
<svg id="Layer_1" data-name="Layer 1" xmlns="http://www.w3.org/2000/svg" xmlns:xlink="http://www.w3.org/1999/xlink" viewBox="0 0 200 200">
  <defs>
    <style>
      .cls-1 {
        fill: none;
        fill-rule: evenodd;
        stroke: #fff;
        stroke-linejoin: round;
        stroke-width: 5.5px;
      }

      .cls-2 {
        fill: url(#linear-gradient);
      }
    </style>
    <linearGradient id="linear-gradient" x1="12.07" y1="187.93" x2="191.98" y2="8.02" gradientUnits="userSpaceOnUse">
      <stop offset="0" stop-color="#2777e9"/>
      <stop offset="1" stop-color="#182b53"/>
    </linearGradient>
  </defs>
  <path class="cls-2" d="M137.5,200H62.5c-50,0-62.5-12.5-62.5-62.5V62.5C0,12.5,12.5,0,62.5,0h75c50,0,62.5,12.5,62.5,62.5v75c0,50-12.5,62.5-62.5,62.5Z"/>
  <g>
    <path class="cls-1" d="M54.09,73.89l20.41,10.68c.14.06.28.13.41.22l25.34,13.26,24.98-13.07s.09-.05.14-.08l20.54-10.75-46.16-24.16-45.67,23.89Z"/>
    <path class="cls-1" d="M121.1,87.14l24.81,12.99-20.54,10.75s-.1.05-.14.08l-4.13,2.16-20.85,10.91-21.34-11.17-4.01-2.1c-.13-.08-.27-.15-.41-.21l-20.4-10.68,24.81-12.99"/>
    <path class="cls-1" d="M121.1,113.12l24.81,12.99-20.54,10.74s-.1.05-.14.08l-24.98,13.07-25.35-13.26c-.13-.09-.27-.16-.41-.22l-20.4-10.68,24.82-12.98"/>
  </g>
</svg>