<?xml version="1.0" encoding="UTF-8"?>
<svg id="Layer_1" data-name="Layer 1" xmlns="http://www.w3.org/2000/svg" xmlns:xlink="http://www.w3.org/1999/xlink" viewBox="0 0 200 200">
  <defs>
    <style>
      .cls-1 {
        stroke-width: 5.5px;
      }

      .cls-1, .cls-2 {
        fill: none;
        stroke: #fff;
        stroke-linejoin: round;
      }

      .cls-2 {
        stroke-linecap: round;
        stroke-width: 5.69px;
      }

      .cls-3 {
        fill: url(#linear-gradient);
      }
    </style>
    <linearGradient id="linear-gradient" x1="12.07" y1="187.93" x2="191.98" y2="8.02" gradientUnits="userSpaceOnUse">
      <stop offset="0" stop-color="#2777e9"/>
      <stop offset="1" stop-color="#182b53"/>
    </linearGradient>
  </defs>
  <path class="cls-3" d="M137.5,200H62.5c-50,0-62.5-12.5-62.5-62.5V62.5C0,12.5,12.5,0,62.5,0h75c50,0,62.5,12.5,62.5,62.5v75c0,50-12.5,62.5-62.5,62.5Z"/>
  <rect class="cls-1" x="70" y="70" width="60" height="60"/>
  <line class="cls-2" x1="60" y1="100" x2="140" y2="100"/>
  <polyline class="cls-2" points="40 70 40 40 70 40"/>
  <polyline class="cls-2" points="160 130 160 160 130 160"/>
  <polyline class="cls-2" points="130 40 160 40 160 70"/>
  <polyline class="cls-2" points="40 130 40 160 70 160"/>
</svg>