<?xml version="1.0" encoding="UTF-8"?>
<svg id="Layer_1" data-name="Layer 1" xmlns="http://www.w3.org/2000/svg" xmlns:xlink="http://www.w3.org/1999/xlink" viewBox="0 0 200 200">
  <defs>
    <style>
      .cls-1 {
        fill: #fff;
      }

      .cls-2 {
        stroke-width: 5.5px;
      }

      .cls-2, .cls-3, .cls-4 {
        fill: none;
        stroke: #fff;
        stroke-linejoin: round;
      }

      .cls-3 {
        stroke-width: 5.5px;
      }

      .cls-3, .cls-4 {
        stroke-linecap: round;
      }

      .cls-4 {
        stroke-width: 5.69px;
      }

      .cls-5 {
        fill: url(#linear-gradient);
      }
    </style>
    <linearGradient id="linear-gradient" x1="12.07" y1="187.93" x2="191.98" y2="8.02" gradientUnits="userSpaceOnUse">
      <stop offset="0" stop-color="#2777e9"/>
      <stop offset="1" stop-color="#182b53"/>
    </linearGradient>
  </defs>
  <path class="cls-5" d="M137.5,200H62.5c-50,0-62.5-12.5-62.5-62.5V62.5C0,12.5,12.5,0,62.5,0h75c50,0,62.5,12.5,62.5,62.5v75c0,50-12.5,62.5-62.5,62.5Z"/>
  <rect class="cls-2" x="45" y="45" width="110" height="110" rx="10" ry="10"/>
  <polyline class="cls-2" points="104.97 121.42 104.97 88.16 84.37 67.56 63.77 88.16 63.77 121.42"/>
  <circle class="cls-2" cx="126.99" cy="73.01" r="9.66"/>
  <polyline class="cls-2" points="89.46 121.42 89.46 104.33 79.28 104.33 79.28 121.42"/>
  <line class="cls-2" x1="45" y1="121.42" x2="155" y2="121.42"/>
  <line class="cls-4" x1="61.77" y1="132.34" x2="138.23" y2="132.34"/>
  <line class="cls-4" x1="61.77" y1="143.98" x2="114.79" y2="143.98"/>
  <g>
    <line class="cls-3" x1="63.77" y1="88.16" x2="73.69" y2="88.16"/>
    <line class="cls-3" x1="95.05" y1="88.16" x2="104.97" y2="88.16"/>
  </g>
  <path class="cls-1" d="M36.2,54.17h8.83v91.67h-8.83c-2.21,0-4-1.79-4-4V58.17c0-2.21,1.79-4,4-4Z"/>
  <path class="cls-1" d="M159,54.17h8.83v91.67h-8.83c-2.21,0-4-1.79-4-4V58.17c0-2.21,1.79-4,4-4Z" transform="translate(322.84 200) rotate(180)"/>
</svg>