<svg width="44" height="36" viewBox="0 0 44 36" fill="none" xmlns="http://www.w3.org/2000/svg">
<path d="M25.2569 35.0094C25.2902 35.0429 26.3113 35.2989 27.5258 35.5782C28.7405 35.8574 29.7474 36.0432 29.7636 35.9913C29.7797 35.9393 29.9054 35.096 30.0428 34.1172C30.3188 32.1517 30.9872 29.8568 31.7014 28.4215C33.9277 23.9485 37.9219 20.9868 42.7664 20.217L44 20.0209V18.0449V16.0688L42.8819 15.8812C35.5564 14.6518 30.7806 9.17276 29.8872 0.973339C29.8289 0.437923 29.7592 0 29.7323 0C29.4853 0 25.3915 0.986885 25.3141 1.06506C25.2581 1.1216 25.2998 1.62353 25.4068 2.18028C26.5914 8.34534 29.9832 13.362 34.3848 15.4596L35.4406 15.9628L13.729 16.0022L0 16.0272V20.0262L13.7643 20.0513L35.4247 20.0908L34.0918 20.7664C30.6338 22.5189 27.896 25.9566 26.2837 30.5708C25.8243 31.8854 25.1311 34.8823 25.2569 35.0094Z" fill="#ED4C14"/>
</svg>
