<?xml version="1.0" encoding="UTF-8"?>
<svg id="Layer_1" data-name="Layer 1" xmlns="http://www.w3.org/2000/svg" xmlns:xlink="http://www.w3.org/1999/xlink" viewBox="0 0 200 200">
  <defs>
    <style>
      .cls-1 {
        fill: #fff;
      }

      .cls-2 {
        stroke-width: 5.5px;
      }

      .cls-2, .cls-3 {
        fill: none;
        stroke: #fff;
        stroke-linejoin: round;
      }

      .cls-3 {
        stroke-linecap: round;
        stroke-width: 5.69px;
      }

      .cls-4 {
        fill: url(#linear-gradient);
      }
    </style>
    <linearGradient id="linear-gradient" x1="12.07" y1="187.93" x2="191.98" y2="8.02" gradientUnits="userSpaceOnUse">
      <stop offset="0" stop-color="#2777e9"/>
      <stop offset="1" stop-color="#182b53"/>
    </linearGradient>
  </defs>
  <path class="cls-4" d="M137.5,200H62.5c-50,0-62.5-12.5-62.5-62.5V62.5C0,12.5,12.5,0,62.5,0h75c50,0,62.5,12.5,62.5,62.5v75c0,50-12.5,62.5-62.5,62.5Z"/>
  <g>
    <line class="cls-3" x1="70.8" y1="39.24" x2="70.8" y2="55.73"/>
    <line class="cls-3" x1="113.72" y1="39.24" x2="113.72" y2="55.73"/>
    <path class="cls-3" d="M86.62,146.67h-36.62c-4.67,0-8.45-3.78-8.45-8.45V53.7c0-4.67,3.78-8.45,8.45-8.45h84.51c4.67,0,8.45,3.78,8.45,8.45v37.19"/>
    <line class="cls-2" x1="41.55" y1="70.6" x2="142.96" y2="70.6"/>
    <rect class="cls-1" x="75.35" y="81.47" width="11.27" height="10.87" rx="1.69" ry="1.69"/>
    <rect class="cls-1" x="97.89" y="81.47" width="11.27" height="10.87" rx="1.69" ry="1.69"/>
    <rect class="cls-1" x="120.43" y="81.47" width="11.27" height="10.87" rx="1.69" ry="1.69"/>
    <rect class="cls-1" x="52.82" y="103.2" width="11.27" height="10.87" rx="1.69" ry="1.69"/>
    <rect class="cls-1" x="75.35" y="103.2" width="11.27" height="10.87" rx="1.69" ry="1.69"/>
    <rect class="cls-1" x="52.82" y="124.93" width="11.27" height="10.87" rx="1.69" ry="1.69"/>
    <rect class="cls-1" x="75.35" y="124.93" width="11.27" height="10.87" rx="1.69" ry="1.69"/>
    <path class="cls-1" d="M171.86,117.78h-8.69l-6.88-14.7c-1.48-3.16-4.69-5.21-8.18-5.21h-32.66c-3.49,0-6.7,2.04-8.18,5.21l-6.88,14.7h-8.76c-.77,0-1.39.83-1.39,1.86v3.43c0,.92.51,1.71,1.2,1.84l4.34.84c-.07.37-.1.74-.1,1.13v17.21s0,.02,0,.03v13.13c0,1.94,1.58,3.52,3.52,3.52h5.68c1.94,0,3.52-1.58,3.52-3.52v-6.86h46.64v6.86c0,1.94,1.58,3.52,3.52,3.52h5.68c1.94,0,3.52-1.58,3.52-3.52v-13.68s0-.03,0-.04v-16.64c0-.38-.04-.75-.1-1.11l4.42-.85c.69-.13,1.2-.92,1.2-1.84v-3.43c0-1.03-.62-1.86-1.39-1.86ZM112.54,105.55c.53-1.12,1.67-1.85,2.9-1.85h32.66c1.24,0,2.38.73,2.9,1.85l7.04,15.03h-52.54l7.04-15.03ZM107.56,139.43c-3.07,0-5.56-2.49-5.56-5.56s2.49-5.56,5.56-5.56,5.56,2.49,5.56,5.56-2.49,5.56-5.56,5.56ZM153.97,139.43c-3.07,0-5.56-2.49-5.56-5.56s2.49-5.56,5.56-5.56,5.56,2.49,5.56,5.56-2.49,5.56-5.56,5.56Z"/>
  </g>
</svg>