<svg width="24" height="24" viewBox="0 0 24 24" fill="none" xmlns="http://www.w3.org/2000/svg">
<path d="M18.3178 2.44739L15.0846 5.68062L15.0779 5.68729C14.3446 6.4206 14.3446 7.61389 15.0779 8.3472L15.6528 8.92214C16.3861 9.65545 17.5794 9.65545 18.3127 8.92214L18.3194 8.91548L21.5526 5.68225C22.4526 7.88218 21.9793 10.4088 20.2726 12.1087C19.1803 13.201 17.6408 13.9058 16.0779 13.847C14.7246 13.847 13.338 14.4603 12.258 15.5403L6.58485 21.2134C6.06487 21.7401 5.37156 22.0001 4.68491 22.0001C3.99827 22.0001 3.31162 21.7401 2.78497 21.2134C1.73834 20.1601 1.73834 18.4535 2.78497 17.4069L8.46479 11.7338C9.53809 10.6605 10.1581 9.26717 10.1581 7.91388C10.1581 6.33393 10.7714 4.84731 11.8913 3.72735C13.5913 2.02074 16.1179 1.54742 18.3178 2.44739Z" stroke="#EFF6FF" stroke-width="1.5" stroke-linejoin="round"/>
</svg>
